<svg width="24" height="24" viewBox="0 0 24 24" fill="none" xmlns="http://www.w3.org/2000/svg">
<g clip-path="url(#clip0_43_3215)">
<rect width="24" height="24" fill="black"/>
<path fill-rule="evenodd" clip-rule="evenodd" d="M12 0C8.7408 0 8.3328 0.0136 7.0528 0.072C5.7752 0.1304 4.9024 0.3336 4.1392 0.6304C3.3392 0.9312 2.6136 1.4032 2.0136 2.0144C1.40338 2.61371 0.931087 3.3388 0.6296 4.1392C0.3344 4.9024 0.1304 5.776 0.072 7.0536C0.0144 8.3328 0 8.74 0 12C0 15.26 0.0136 15.6672 0.072 16.9472C0.1304 18.2248 0.3336 19.0976 0.6304 19.8608C0.9312 20.6608 1.4032 21.3864 2.0144 21.9864C2.61372 22.5966 3.33881 23.0689 4.1392 23.3704C4.9024 23.6664 5.7752 23.8696 7.0528 23.928C8.3328 23.9864 8.7408 24 12 24C15.2592 24 15.6672 23.9864 16.9472 23.928C18.2248 23.8696 19.0976 23.6664 19.8608 23.3696C20.6608 23.0688 21.3864 22.5968 21.9864 21.9856C22.5966 21.3863 23.0689 20.6612 23.3704 19.8608C23.6664 19.0976 23.8696 18.2248 23.928 16.9472C23.9864 15.6672 24 15.2592 24 12C24 8.7408 23.9864 8.3328 23.928 7.0528C23.8696 5.7752 23.6664 4.9024 23.3696 4.1392C23.0683 3.33845 22.596 2.61306 21.9856 2.0136C21.3863 1.40338 20.6612 0.931087 19.8608 0.6296C19.0976 0.3344 18.224 0.1304 16.9464 0.072C15.6672 0.0144 15.26 0 12 0ZM12 2.1624C15.204 2.1624 15.584 2.1744 16.8496 2.232C18.0192 2.2856 18.6544 2.48 19.0776 2.6456C19.6376 2.8624 20.0376 3.1232 20.4576 3.5424C20.8776 3.9624 21.1376 4.3624 21.3544 4.9224C21.5192 5.3456 21.7144 5.9808 21.768 7.1504C21.8256 8.416 21.8376 8.796 21.8376 12C21.8376 15.204 21.8256 15.584 21.768 16.8496C21.7144 18.0192 21.52 18.6544 21.3544 19.0776C21.1623 19.5988 20.8559 20.0704 20.4576 20.4576C20.0705 20.856 19.5989 21.1624 19.0776 21.3544C18.6544 21.5192 18.0192 21.7144 16.8496 21.768C15.584 21.8256 15.2048 21.8376 12 21.8376C8.7952 21.8376 8.416 21.8256 7.1504 21.768C5.9808 21.7144 5.3456 21.52 4.9224 21.3544C4.40116 21.1623 3.92961 20.8559 3.5424 20.4576C3.14414 20.0704 2.8377 19.5988 2.6456 19.0776C2.4808 18.6544 2.2856 18.0192 2.232 16.8496C2.1744 15.584 2.1624 15.204 2.1624 12C2.1624 8.796 2.1744 8.416 2.232 7.1504C2.2856 5.9808 2.48 5.3456 2.6456 4.9224C2.8624 4.3624 3.1232 3.9624 3.5424 3.5424C3.92955 3.14404 4.40113 2.83758 4.9224 2.6456C5.3456 2.4808 5.9808 2.2856 7.1504 2.232C8.416 2.1744 8.796 2.1624 12 2.1624Z" fill="white"/>
<path fill-rule="evenodd" clip-rule="evenodd" d="M11.5014 15.742C10.9756 15.742 10.4549 15.6384 9.96911 15.4372C9.48332 15.236 9.04192 14.9411 8.67012 14.5693C8.29831 14.1975 8.00338 13.7561 7.80216 13.2703C7.60094 12.7845 7.49737 12.2638 7.49737 11.738C7.49737 11.2122 7.60094 10.6915 7.80216 10.2057C8.00338 9.71995 8.29831 9.27855 8.67012 8.90674C9.04192 8.53494 9.48332 8.24001 9.96911 8.03879C10.4549 7.83757 10.9756 7.734 11.5014 7.734C12.5633 7.734 13.5817 8.15585 14.3326 8.90674C15.0835 9.65764 15.5054 10.6761 15.5054 11.738C15.5054 12.7999 15.0835 13.8184 14.3326 14.5693C13.5817 15.3202 12.5633 15.742 11.5014 15.742ZM11.5014 5.57C9.86552 5.57 8.29666 6.21984 7.13994 7.37656C5.98321 8.53329 5.33337 10.1021 5.33337 11.738C5.33337 13.3739 5.98321 14.9427 7.13994 16.0994C8.29666 17.2562 9.86552 17.906 11.5014 17.906C13.1372 17.906 14.7061 17.2562 15.8628 16.0994C17.0195 14.9427 17.6694 13.3739 17.6694 11.738C17.6694 10.1021 17.0195 8.53329 15.8628 7.37656C14.7061 6.21984 13.1372 5.57 11.5014 5.57ZM19.4638 5.458C19.4638 5.84469 19.3102 6.21553 19.0367 6.48896C18.7633 6.76239 18.3925 6.916 18.0058 6.916C17.6191 6.916 17.2482 6.76239 16.9748 6.48896C16.7014 6.21553 16.5478 5.84469 16.5478 5.458C16.5478 5.07131 16.7014 4.70047 16.9748 4.42704C17.2482 4.15361 17.6191 4 18.0058 4C18.3925 4 18.7633 4.15361 19.0367 4.42704C19.3102 4.70047 19.4638 5.07131 19.4638 5.458Z" fill="white"/>
</g>
<defs>
<clipPath id="clip0_43_3215">
<rect width="24" height="24" fill="white"/>
</clipPath>
</defs>
</svg>
