<svg width="24" height="24" viewBox="0 0 24 24" fill="none" xmlns="http://www.w3.org/2000/svg">
<path d="M1.63636 21.0044H5.45455V11.7317L0 7.64075V19.368C0 20.2721 0.732273 21.0044 1.63636 21.0044Z" fill="white"/>
<path d="M18.5455 21.0044H22.3636C23.2677 21.0044 24 20.2721 24 19.368V7.64076L18.5455 11.7317V21.0044Z" fill="white"/>
<path d="M18.5455 4.64077V11.7317L24 7.64076V5.45896C24 3.43668 21.6914 2.28168 20.0727 3.49532L18.5455 4.64077Z" fill="white"/>
<path fill-rule="evenodd" clip-rule="evenodd" d="M5.45455 11.7317V4.64076L12 9.54985L18.5455 4.64077V11.7317L12 16.6408L5.45455 11.7317Z" fill="white"/>
<path d="M0 5.45896V7.64075L5.45455 11.7317V4.64076L3.92727 3.49532C2.30864 2.28168 0 3.43668 0 5.45896Z" fill="white"/>
</svg>
