<svg width="24" height="24" viewBox="0 0 24 24" fill="none" xmlns="http://www.w3.org/2000/svg">
<path fill-rule="evenodd" clip-rule="evenodd" d="M1.69536 17.8375L0 24L6.33471 22.3463C8.0802 23.2939 10.0452 23.7933 12.045 23.7941H12.0501C18.636 23.7941 23.9971 18.4585 24 11.9016C24.0011 8.72369 22.759 5.7358 20.5032 3.48787C18.2468 1.23994 15.2466 0.00155219 12.0501 0C5.46319 0 0.102946 5.33474 0.100267 11.892C0.0995958 13.988 0.64972 16.0341 1.69536 17.8375ZM2.11792 11.8927C2.11993 6.44274 6.57534 2.00884 12.054 2.00884C14.707 2.00996 17.2005 3.03931 19.0758 4.90758C20.9511 6.77584 21.9831 9.2595 21.9821 11.9007C21.9799 17.3511 17.5245 21.7854 12.0501 21.7854H12.0463C10.2637 21.7846 8.51574 21.3082 6.99115 20.4074L6.62816 20.1932L2.86899 21.1745L3.87261 17.5271L3.63627 17.1532C2.64211 15.5793 2.11711 13.7603 2.11792 11.8927Z" fill="white"/>
<path fill-rule="evenodd" clip-rule="evenodd" d="M9.06363 6.92025C8.83982 6.42539 8.60437 6.41536 8.39175 6.40668C8.21763 6.39932 8.01844 6.39977 7.81947 6.39977C7.62028 6.39977 7.29688 6.47419 7.02338 6.77164C6.74966 7.06909 5.97819 7.7881 5.97819 9.25062C5.97819 10.7132 7.04822 12.1262 7.19728 12.3247C7.34656 12.523 9.26282 15.6201 12.2979 16.8115C14.82 17.8016 15.3332 17.6047 15.8809 17.5552C16.4283 17.5057 17.6474 16.8362 17.896 16.1421C18.1449 15.4481 18.1449 14.8534 18.0704 14.7291C17.9956 14.605 17.7967 14.5308 17.4979 14.3822C17.1993 14.2335 15.7314 13.5143 15.4576 13.4152C15.1839 13.316 14.985 13.2666 14.7858 13.564C14.5868 13.8615 14.015 14.5308 13.8406 14.7291C13.6665 14.9276 13.4924 14.9523 13.1936 14.8037C12.895 14.6547 11.9333 14.3412 10.7926 13.3285C9.90493 12.5406 9.30579 11.5676 9.13144 11.2702C8.95732 10.9727 9.11287 10.8119 9.2626 10.6637C9.39666 10.5304 9.56116 10.3165 9.71066 10.143C9.8595 9.96941 9.9094 9.84553 10.0088 9.64745C10.1084 9.44893 10.0587 9.27536 9.98393 9.12674C9.9094 8.97813 9.32907 7.50803 9.06363 6.92025Z" fill="white"/>
</svg>
