<svg width="400" height="400" viewBox="0 0 400 400" fill="none" xmlns="http://www.w3.org/2000/svg">
<g clip-path="url(#clip0_192_120)">
<rect width="400" height="400" fill="black"/>
<g filter="url(#filter0_f_192_120)">
<ellipse cx="199.5" cy="200" rx="121.5" ry="118" fill="#003D23"/>
</g>
<path d="M136.933 291V109.182H205.115C219.083 109.182 230.802 111.786 240.271 116.994C249.8 122.203 256.991 129.364 261.844 138.479C266.757 147.534 269.213 157.832 269.213 169.374C269.213 181.033 266.757 191.391 261.844 200.446C256.932 209.501 249.682 216.633 240.094 221.842C230.506 226.991 218.698 229.565 204.671 229.565H159.483V202.488H200.232C208.4 202.488 215.088 201.067 220.296 198.227C225.505 195.386 229.352 191.479 231.837 186.508C234.382 181.536 235.655 175.825 235.655 169.374C235.655 162.922 234.382 157.241 231.837 152.328C229.352 147.416 225.475 143.598 220.207 140.876C214.999 138.094 208.281 136.703 200.055 136.703H169.87V291H136.933Z" fill="white" fill-opacity="0.75"/>
</g>
<defs>
<filter id="filter0_f_192_120" x="-29" y="-25" width="457" height="450" filterUnits="userSpaceOnUse" color-interpolation-filters="sRGB">
<feFlood flood-opacity="0" result="BackgroundImageFix"/>
<feBlend mode="normal" in="SourceGraphic" in2="BackgroundImageFix" result="shape"/>
<feGaussianBlur stdDeviation="53.5" result="effect1_foregroundBlur_192_120"/>
</filter>
<clipPath id="clip0_192_120">
<rect width="400" height="400" fill="white"/>
</clipPath>
</defs>
</svg>
