<?xml version="1.0" encoding="UTF-8"?>
<svg version="1.1" xmlns="http://www.w3.org/2000/svg" width="2818" height="780">
<path d="M0 0 C3.18283746 0.49148015 5.35394244 1.71040058 7.984375 3.51953125 C8.74621094 4.04095703 9.50804687 4.56238281 10.29296875 5.09960938 C11.10378906 5.66486328 11.91460938 6.23011719 12.75 6.8125 C14.02037109 7.68938477 14.02037109 7.68938477 15.31640625 8.58398438 C21.30041654 12.74228838 27.14424796 17.06059608 32.93847656 21.4777832 C38.01408607 25.32353348 43.22433201 28.93490172 48.5 32.5 C55.12450511 36.97659174 61.56738366 41.61928627 67.92382812 46.46728516 C73.92368866 51.01222456 80.11274382 55.25770977 86.35546875 59.4609375 C91.35163055 62.83184184 96.21370606 66.33692013 101 70 C100.12483611 74.52677298 97.49791579 77.21038466 94.5 80.5625 C93.3948148 81.82332667 92.29065646 83.08505415 91.1875 84.34765625 C90.64222656 84.96914551 90.09695313 85.59063477 89.53515625 86.23095703 C87.46961409 88.61119216 85.48103518 91.04919729 83.5 93.5 C80.10383042 97.68084414 76.63620923 101.79098875 73.125 105.875 C72.62379639 106.45870361 72.12259277 107.04240723 71.60620117 107.64379883 C69.54277882 110.04567136 67.47831034 112.44659156 65.40771484 114.84228516 C63.8719046 116.62056683 62.34177525 118.40359815 60.8125 120.1875 C60.34279785 120.72810059 59.8730957 121.26870117 59.38916016 121.82568359 C57.33883662 124.2252591 56.00976967 125.97069098 55 129 C56.38808447 131.04237979 57.79526492 132.86505672 59.375 134.75 C83.75069793 165.28195885 92.15759942 203.5987596 88.3125 242.0625 C84.70132815 272.44951827 71.97301153 300.88501091 52 324 C51.52981445 324.54849609 51.05962891 325.09699219 50.57519531 325.66210938 C42.43765255 335.06132938 33.37836002 344.08109332 23 351 C23.83917969 351.58394531 23.83917969 351.58394531 24.6953125 352.1796875 C26.43398917 353.39284775 28.16929092 354.61085057 29.90234375 355.83203125 C32.00737329 357.30528648 34.12515201 358.76045688 36.25390625 360.19921875 C65.39746169 380.10377202 85.09573649 407.8948545 92.75 442.37890625 C99.38171209 480.64941141 89.51321823 523.41419326 67.3125 555.125 C57.96498507 567.96493228 46.85953526 578.74486825 34 588 C33.44860352 588.41024414 32.89720703 588.82048828 32.32910156 589.24316406 C-9.52695932 620.24856283 -65.55796125 629.25577601 -116.4375 629.1875 C-117.27315491 629.18689575 -118.10880981 629.1862915 -118.9697876 629.18566895 C-132.39702223 629.1593982 -145.67413075 628.78356788 -159 627 C-159.96470215 626.87109375 -160.9294043 626.7421875 -161.92333984 626.609375 C-199.06956131 621.43036333 -237.4505695 609.2616681 -266 584 C-266.98742188 583.14535156 -267.97484375 582.29070313 -268.9921875 581.41015625 C-299.76323956 554.36788932 -314.62320291 515.6122364 -317.625 475.4375 C-318.20676783 465.43317103 -318.10869091 455.97821818 -317 446 C-273.77 446 -230.54 446 -186 446 C-185.01 457.385 -185.01 457.385 -184 469 C-180.42789014 483.28843945 -175.37194223 495.34330078 -163 504 C-142.46215382 516.20970042 -116.85066052 518.15964677 -93.70703125 513.03515625 C-78.73872521 508.85538691 -64.46565232 502.12403797 -56.37890625 488.2109375 C-49.39284847 474.97595993 -47.78153081 461.39022607 -51.96875 446.8125 C-56.43150452 434.6413513 -64.94876757 426.7631743 -76.5546875 421.31640625 C-89.70228463 416.29289125 -103.25707855 415.01691345 -117.22436523 414.70996094 C-140.60129399 414.18392336 -163.28936143 411.71339544 -186 406 C-186.77134277 405.80680176 -187.54268555 405.61360352 -188.33740234 405.41455078 C-218.85283929 397.57119849 -247.47735006 382.02422338 -270 360 C-270.99243754 359.06788902 -271.98594328 358.13691418 -272.98046875 357.20703125 C-303.01115271 328.70678984 -320.10450333 285.89719376 -322.10687256 244.80688477 C-322.16277739 242.5739615 -322.19023767 240.34295685 -322.203125 238.109375 C-322.21013931 237.29073471 -322.21715363 236.47209442 -322.22438049 235.62864685 C-322.24178065 233.00237459 -322.24823232 230.37632778 -322.25 227.75 C-322.25067474 226.85294342 -322.25134949 225.95588684 -322.25204468 225.03164673 C-322.23623427 211.81518241 -321.90224026 198.94823875 -319 186 C-318.82839355 185.21544434 -318.65678711 184.43088867 -318.47998047 183.62255859 C-311.4029559 152.23446838 -297.13800872 122.60731774 -274.47021484 99.50976562 C-272.90032188 97.8976404 -271.36676999 96.25496371 -269.83203125 94.609375 C-232.72821507 55.46319663 -176.51190924 37.56500574 -123.71484375 35.92919922 C-94.12145358 35.21342413 -66.05479213 40.78422249 -38 50 C-37.56675415 49.09483643 -37.56675415 49.09483643 -37.12475586 48.17138672 C-35.59205962 45.21245459 -33.6104285 42.75290185 -31.5625 40.125 C-31.1200293 39.55547607 -30.67755859 38.98595215 -30.22167969 38.39916992 C-28.81866821 36.59610791 -27.41025391 34.7974016 -26 33 C-25.56478027 32.44489746 -25.12956055 31.88979492 -24.68115234 31.31787109 C-22.92645107 29.08130541 -21.17029917 26.84590065 -19.41088867 24.61303711 C-14.74621362 18.69087795 -10.12435755 12.73557969 -5.50683594 6.77661133 C-4.93481445 6.03950928 -4.36279297 5.30240723 -3.7734375 4.54296875 C-3.26216309 3.88321045 -2.75088867 3.22345215 -2.22412109 2.54370117 C-1 1 -1 1 0 0 Z M-186.8125 161 C-202.90012493 180.2114356 -211.84543111 205.92557089 -210 231 C-207.43732974 257.17195157 -196.35358966 282.65791085 -176 300 C-163.13153337 310.2452792 -149.07269924 318.08485531 -133 322 C-132.09765625 322.22429687 -131.1953125 322.44859375 -130.265625 322.6796875 C-103.7068969 328.15648736 -76.41384018 321.71833203 -54 307 C-43.17596632 299.04565865 -34.52965276 290.09798506 -27 279 C-26.47535156 278.25492188 -25.95070313 277.50984375 -25.41015625 276.7421875 C-11.60063995 255.7165579 -8.00198926 228.28352864 -13 204 C-19.37538401 178.39521887 -34.06368444 154.90372997 -57 141 C-101.30884375 114.83812297 -152.3878246 123.59185273 -186.8125 161 Z " fill="#FFFFFF" transform="translate(1532,151)"/>
<path d="M0 0 C1.22332031 0.43957031 2.44664062 0.87914062 3.70703125 1.33203125 C43.87623075 16.60053326 74.33893353 45.84853824 92 85 C94.72821984 91.54103413 96.9492487 98.22002115 99 105 C99.35118896 106.13888672 99.35118896 106.13888672 99.70947266 107.30078125 C117.37511537 165.62384401 112.54855664 234.06304591 84 288 C62.8110385 326.7205572 27.00020652 354.97856104 -15 368 C-56.52680619 379.83418293 -106.93774567 380.79580333 -146 360 C-148.63981215 358.49802656 -151.20594411 356.90859399 -153.75 355.25 C-154.57987427 354.71403198 -154.57987427 354.71403198 -155.42651367 354.16723633 C-161.92951231 349.71712105 -167.07115138 344.4347779 -173 339 C-173.495 429.585 -173.495 429.585 -174 522 C-219.87 522 -265.74 522 -313 522 C-313 348.09 -313 174.18 -313 -5 C-272.08 -5 -231.16 -5 -189 -5 C-187.35 5.23 -185.7 15.46 -184 26 C-183.67 27.98 -183.34 29.96 -183 32 C-182.0925 31.21625 -181.185 30.4325 -180.25 29.625 C-179.60804688 29.0784375 -178.96609375 28.531875 -178.3046875 27.96875 C-176.63419769 26.54175531 -174.97402916 25.10264941 -173.3203125 23.65625 C-126.13503304 -16.89555516 -56.78304605 -20.44189658 0 0 Z M-146 111 C-146.65226562 111.5775 -147.30453125 112.155 -147.9765625 112.75 C-164.21962017 127.72302435 -176.31814186 150.28766494 -177.23828125 172.4765625 C-177.89282469 202.68580616 -168.3712236 229.34410077 -147.53955078 251.42919922 C-129.85163676 269.47614479 -104.43169921 280.74869645 -79.11694336 281.24169922 C-54.18889523 281.34241861 -30.99204309 273.44277556 -12 257 C-11.25234375 256.39671875 -10.5046875 255.7934375 -9.734375 255.171875 C8.79443206 239.75279779 19.88189216 215.81210686 22.625 192.125 C22.76573874 190.41789122 22.89072258 188.70941107 23 187 C23.08121094 185.80697266 23.08121094 185.80697266 23.1640625 184.58984375 C24.05877827 158.27706627 13.55278535 133.02050874 -3.93359375 113.72265625 C-22.36100374 94.05681423 -46.26866066 84.149822 -73 82 C-100.7577453 81.25648897 -126.0914535 91.97476785 -146 111 Z " fill="#FFFFFF" transform="translate(313,204)"/>
<path d="M0 0 C1.60882977 1.49499748 3.21329663 2.99470958 4.8125 4.5 C5.81023438 5.38365234 5.81023438 5.38365234 6.828125 6.28515625 C37.03904253 34.22411453 47.06800775 82.17905803 48.8125 121.5 C48.99251811 128.93600508 48.93922798 136.376143 48.92602539 143.8137207 C48.9257429 146.05206298 48.92590245 148.29040534 48.9264679 150.52874756 C48.92675347 156.57118166 48.92089561 162.61359571 48.91389394 168.65602517 C48.90762036 174.98342552 48.90705344 181.31082639 48.90586853 187.63822937 C48.90311883 198.24734841 48.89688302 208.85646092 48.88793945 219.46557617 C48.87874243 230.38679977 48.87168431 241.30802136 48.86743164 252.22924805 C48.86716364 252.91073727 48.86689565 253.59222649 48.86661953 254.2943669 C48.86430628 260.22353204 48.86215367 266.15269724 48.86001682 272.08186245 C48.8506288 297.55458185 48.83070202 323.02728185 48.8125 348.5 C2.9425 348.5 -42.9275 348.5 -90.1875 348.5 C-90.22488281 333.2375 -90.26226563 317.975 -90.30078125 302.25 C-90.33106367 292.57030348 -90.36209238 282.89061885 -90.39648438 273.2109375 C-90.45091213 257.85320118 -90.50232775 242.49549783 -90.53393555 227.13769531 C-90.55697238 215.95123429 -90.59043368 204.76486027 -90.63620156 193.57846832 C-90.66005719 187.66016874 -90.67883607 181.7419549 -90.68511391 175.8236084 C-90.69119951 170.24218266 -90.7113239 164.6609761 -90.74177551 159.07963181 C-90.75050034 157.04164533 -90.75428998 155.00363014 -90.75250816 152.96562576 C-90.74002933 132.08888606 -92.53614474 111.76787957 -107.1875 95.5 C-119.75297482 84.43580122 -133.612214 82.72772941 -149.68603516 83.31640625 C-164.80654275 84.42616828 -179.37582398 92.50609715 -189.2265625 103.84765625 C-200.4599082 119.06463335 -204.32180311 136.67452243 -204.34571838 155.25099182 C-204.35065636 156.08355922 -204.35559434 156.91612662 -204.36068195 157.77392334 C-204.37592503 160.53751281 -204.38438142 163.3010793 -204.39282227 166.06469727 C-204.40241119 168.05614928 -204.41242185 170.0475993 -204.42282104 172.03904724 C-204.44976632 177.42675941 -204.47083183 182.81448025 -204.49082303 188.20222211 C-204.51274687 193.83965955 -204.54010416 199.47707059 -204.56687927 205.11448669 C-204.61671986 215.78146185 -204.66169061 226.44845172 -204.70490164 237.11545557 C-204.76359879 251.53563241 -204.82983911 265.9557745 -204.89565182 280.3759203 C-204.99909139 303.08392341 -205.09247035 325.79195653 -205.1875 348.5 C-250.3975 348.5 -295.6075 348.5 -342.1875 348.5 C-342.1875 225.74 -342.1875 102.98 -342.1875 -23.5 C-301.5975 -23.5 -261.0075 -23.5 -219.1875 -23.5 C-214.54464286 4.35714286 -214.54464286 4.35714286 -213.1875 13.5 C-210.94383353 13.73253282 -210.94383353 13.73253282 -209.11328125 11.48046875 C-208.25089844 10.55878906 -207.38851562 9.63710937 -206.5 8.6875 C-155.73625507 -43.50166849 -54.80014006 -48.48024531 0 0 Z " fill="#FEFFFE" transform="translate(2348.1875,222.5)"/>
<path d="M0 0 C1.48413226 1.3950152 2.95497004 2.80207891 4.41796875 4.21923828 C5.99458123 5.74265529 7.59081646 7.24375107 9.1875 8.74609375 C26.0672905 24.86133783 38.55769184 44.95918702 46.9375 66.6875 C47.20014648 67.36828613 47.46279297 68.04907227 47.73339844 68.75048828 C66.90758391 119.64858877 65.11669811 181.40871811 42.76513672 230.92260742 C22.06223787 275.4537892 -17.0692381 307.41410889 -62.734375 324.2109375 C-76.9279818 329.20426752 -91.23680937 333.12462321 -106.0625 335.6875 C-106.96919434 335.84976074 -107.87588867 336.01202148 -108.81005859 336.17919922 C-170.1120144 346.67232679 -239.6710289 335.37822251 -290.96386719 299.35205078 C-304.43301974 289.55002584 -317.09096534 278.0508392 -327.0625 264.6875 C-328.25746094 263.12322266 -328.25746094 263.12322266 -329.4765625 261.52734375 C-340.93814094 246.24003713 -348.97775588 229.76204391 -355.0625 211.6875 C-355.31370605 210.9459668 -355.56491211 210.20443359 -355.82373047 209.44042969 C-357.53340189 204.25090657 -358.8903206 199.02304468 -360.0625 193.6875 C-360.25859863 192.80143066 -360.45469727 191.91536133 -360.65673828 191.00244141 C-363.92930346 175.34068836 -364.45562111 159.81395164 -364.5 143.875 C-364.5061734 142.93884857 -364.5123468 142.00269714 -364.51870728 141.03817749 C-364.69531256 99.38534088 -353.80563627 57.95811231 -328.0625 24.6875 C-327.35738281 23.759375 -326.65226563 22.83125 -325.92578125 21.875 C-291.7747584 -21.55550596 -238.97895431 -42.03602019 -185.61328125 -49.06640625 C-122.37198402 -56.40468213 -48.33504845 -44.2540939 0 0 Z M-222.0625 76.6875 C-222.77664063 77.33074219 -223.49078125 77.97398437 -224.2265625 78.63671875 C-239.6561738 92.80614267 -249.970187 115.85341865 -251.23950195 136.57739258 C-251.85842218 166.92421002 -245.56500512 192.87475026 -224.28344727 215.4921875 C-205.59118953 234.67235033 -180.84158053 245.6423598 -154.09765625 246.72265625 C-135.40854015 246.80024232 -118.28725841 241.75220198 -102.0625 232.6875 C-101.0621875 232.130625 -100.061875 231.57375 -99.03125 231 C-76.16880184 217.33508846 -61.48051498 194.14382831 -55.0625 168.6875 C-48.93634976 143.92495587 -54.16751353 117.41043434 -66.89160156 95.63525391 C-70.4224516 89.8606699 -74.54012411 84.70803778 -79.0625 79.6875 C-80.10857422 78.51767578 -80.10857422 78.51767578 -81.17578125 77.32421875 C-97.88781717 59.63451345 -122.76748644 48.42931068 -147.0859375 47.484375 C-175.80238659 46.96369575 -201.64681849 56.24116432 -222.0625 76.6875 Z " fill="#FFFFFF" transform="translate(1119.0625,241.3125)"/>
<path d="M0 0 C1.8632764 0.01005773 3.7265581 0.01917861 5.58984375 0.02734375 C10.10169629 0.04911786 14.61328764 0.08349097 19.125 0.125 C19.11946924 1.16253449 19.11946924 1.16253449 19.11382675 2.22102928 C19.02533864 19.08180889 18.95922392 35.94251457 18.91775131 52.80347252 C18.89716036 60.95744563 18.86910647 69.11126336 18.82324219 77.26513672 C18.7832678 84.3753033 18.757542 91.48535731 18.74864602 98.59563315 C18.74344911 102.35758192 18.73130782 106.11920874 18.70207977 109.88105392 C18.67474249 113.42859704 18.66659145 116.97568842 18.67256927 120.52332687 C18.67096004 122.43229717 18.64953362 124.34121931 18.62731934 126.25006104 C18.66692263 134.59090729 19.54417907 142.35571481 25.5 148.625 C36.58514297 154.95936741 50.93497158 153.2403791 63.3224144 153.13903427 C66.1730443 153.11675087 69.02360535 153.10284424 71.8742981 153.09133911 C79.97000409 153.05797305 88.0655941 153.01588789 96.16113281 152.95361328 C101.13514034 152.91594218 106.10903531 152.89294177 111.08316422 152.87930679 C112.97059419 152.87127091 114.85800924 152.8576881 116.74535751 152.83837509 C119.37969684 152.81185575 122.01349284 152.80400021 124.64794922 152.80029297 C125.42103928 152.7879361 126.19412933 152.77557922 126.99064636 152.7628479 C131.79353979 152.78064494 135.05019169 153.57550422 139.125 156.125 C144.5952526 162.0387866 144.40735234 167.32164368 144.6875 175 C144.74901245 176.6847644 144.74901245 176.6847644 144.81176758 178.40356445 C145.11944113 187.8994022 145.26060822 197.39482554 145.30123901 206.89532471 C145.30864027 208.48400711 145.31922611 210.07267846 145.33328247 211.66131592 C145.61153342 246.28453522 145.61153342 246.28453522 134.79296875 257.6640625 C120.66769498 270.03608215 94.70349043 267.28138435 77.03515625 267.22265625 C75.35265648 267.22078534 73.67015616 267.21936463 71.98765564 267.21836853 C67.61319406 267.21459625 63.23876702 267.20481284 58.86431885 267.19366455 C54.37895169 267.18333502 49.89357881 267.17884648 45.40820312 267.17382812 C36.64711977 267.16318442 27.88606421 267.1461737 19.125 267.125 C19.10140133 282.51369884 19.08389085 297.9023963 19.07318783 313.29110909 C19.06808112 320.44000995 19.06114903 327.58889943 19.04956055 334.73779297 C19.03943825 340.98530362 19.03310598 347.232806 19.03091151 353.48032463 C19.02963339 356.77329326 19.02617311 360.06623345 19.01926994 363.35919571 C18.99108957 377.38551819 19.11754127 391.39459573 19.56079102 405.41357422 C19.598599 406.65475069 19.63640699 407.89592716 19.67536068 409.17471504 C20.30606962 427.16521822 23.50332988 443.48987214 36.4921875 456.875 C49.77953394 468.23035839 66.17586303 472.13352194 83.3359375 472.44140625 C84.30407379 472.46218735 85.27221008 472.48296844 86.26968384 472.50437927 C89.34638732 472.56948984 92.42317236 472.62857998 95.5 472.6875 C97.59245617 472.73072186 99.68490426 472.7743373 101.77734375 472.81835938 C106.89314669 472.92513156 112.00903125 473.02650636 117.125 473.125 C116.98145646 474.70824108 116.83364957 476.29109594 116.68408203 477.8737793 C116.60223663 478.75527145 116.52039124 479.63676361 116.43606567 480.54496765 C114.21846886 498.93809813 103.63633702 516.15279849 89.6875 527.9375 C87.85188739 529.35764474 85.99867505 530.75546485 84.125 532.125 C83.40441406 532.65609375 82.68382813 533.1871875 81.94140625 533.734375 C59.66121583 548.50840501 28.96118257 553.74583265 3.125 558.125 C2.34785645 558.25777344 1.57071289 558.39054688 0.77001953 558.52734375 C-15.37556586 561.22775643 -26.78817215 560.06549389 -40.875 551.125 C-44.34546726 548.6081296 -47.62390477 545.91767499 -50.875 543.125 C-52.05255859 542.13113281 -52.05255859 542.13113281 -53.25390625 541.1171875 C-58.26811692 536.79020367 -62.63138638 532.197723 -66.875 527.125 C-67.61234375 526.29871094 -68.3496875 525.47242188 -69.109375 524.62109375 C-108.40593199 479.63029045 -112.02039515 423.17551542 -112.47629547 366.24963379 C-112.50046928 363.31809026 -112.52761212 360.38658756 -112.55560303 357.45507812 C-112.98172399 312.57722002 -113.05233786 267.70120807 -112.88814545 222.82188416 C-112.874211 218.9031093 -112.86148135 214.98433124 -112.84893799 211.06555176 C-112.7964627 194.8835203 -112.72934587 178.7016461 -112.63607025 162.51979446 C-112.62754841 161.03826147 -112.61903653 159.55672842 -112.61053467 158.07519531 C-112.60633514 157.34431536 -112.60213562 156.61343542 -112.59780884 155.86040759 C-112.56913933 150.75135463 -112.54759283 145.64230217 -112.52911377 140.53320312 C-112.50390934 133.61437447 -112.46294342 126.69578167 -112.41193962 119.77709579 C-112.39538065 117.22027172 -112.38369404 114.66341051 -112.37735176 112.10654068 C-112.285541 78.58756032 -105.60336606 51.50379645 -81.9375 26.875 C-71.14548458 16.38092366 -57.73578467 8.55866121 -43.3125 4.25 C-42.67755615 4.05905762 -42.0426123 3.86811523 -41.38842773 3.67138672 C-27.71226731 -0.0965176 -14.05553392 -0.1332874 0 0 Z " fill="#FEFFFE" transform="translate(2539.875,-0.125)"/>
<path d="M0 0 C41.60582346 0 78.55560804 12.93884202 108.5625 42.1875 C129.73668522 63.46746282 140.24651493 90.7350566 140.25816262 120.5886085 C140.25245849 122.36121729 140.24656734 124.13382549 140.24050903 125.90643311 C140.24138227 127.81419852 140.24313543 129.7219637 140.24568737 131.6297276 C140.2501416 136.84737039 140.24218375 142.06493047 140.23213124 147.28256273 C140.22347123 152.9183962 140.22641871 158.55422523 140.22793579 164.19006348 C140.22898303 173.94634857 140.22272326 183.70260685 140.21146011 193.45888519 C140.19518624 207.56471608 140.18999517 221.67053404 140.18748413 235.7763733 C140.18310999 258.66374966 140.16982574 281.55110856 140.15087891 304.43847656 C140.13249825 326.66764248 140.1183368 348.89680457 140.10986328 371.12597656 C140.10960023 371.81166397 140.10933718 372.49735137 140.10906615 373.20381719 C140.10642902 380.09002568 140.10387741 386.97623421 140.10138843 393.86244277 C140.08052063 451.57497412 140.04357433 509.28748041 140 567 C93.8 567 47.6 567 0 567 C0 379.89 0 192.78 0 0 Z " fill="#FFFFFF" transform="translate(1664,4)"/>
<path d="M0 0 C2.53185953 2.30969304 4.33888185 4.19582277 6.25 7.0625 C-0.59158639 19.80311439 -7.51219743 32.48970773 -14.66088867 45.06079102 C-19.08856779 52.85949157 -23.4289878 60.70445073 -27.75 68.5625 C-34.65457727 81.117146 -41.66422282 93.6089888 -48.75 106.0625 C-53.39909166 106.0625 -54.00859403 105.38164768 -57.5 102.5625 C-76.61069025 88.24851686 -98.93106496 83.13805058 -122.5625 85.6875 C-134.45465253 87.62253775 -144.30404541 91.60707224 -153.75 99.0625 C-154.636875 99.660625 -155.52375 100.25875 -156.4375 100.875 C-169.44682137 113.18111481 -174.57293508 132.05302936 -175.21830416 149.4677012 C-175.30774197 153.95385902 -175.30894461 158.43746132 -175.29589844 162.92431641 C-175.3046569 164.94665818 -175.31515048 166.96899305 -175.32722473 168.99131775 C-175.35482713 174.42195313 -175.35849517 179.85235953 -175.35750484 185.28305483 C-175.36065632 190.98053257 -175.38632057 196.67791051 -175.40948486 202.37533569 C-175.44987839 213.13764746 -175.47034625 223.89989889 -175.48345876 234.66227472 C-175.50237 249.22423586 -175.55246038 263.78608871 -175.60070229 278.34797668 C-175.67577008 301.25281211 -175.70952468 324.1575168 -175.75 347.0625 C-221.62 347.0625 -267.49 347.0625 -314.75 347.0625 C-314.75 224.3025 -314.75 101.5425 -314.75 -24.9375 C-273.5 -24.9375 -232.25 -24.9375 -189.75 -24.9375 C-187.11 -12.3975 -184.47 0.1425 -181.75 13.0625 C-179.11 9.4325 -176.47 5.8025 -173.75 2.0625 C-155.66936212 -19.37597063 -132.30092704 -30.26069538 -104.75 -33.625 C-66.64547899 -36.63325166 -28.78023376 -25.43081001 0 0 Z " fill="#FFFFFF" transform="translate(767.75,223.9375)"/>
<path d="M0 0 C46.2 0 92.4 0 140 0 C140 120.78 140 241.56 140 366 C100.39842867 366 67.40597718 352.11987043 39.0625 324.5 C11.90309746 297.21939285 -0.39172444 261.47255721 -0.3732605 223.46626282 C-0.36264889 221.2553392 -0.35174455 219.04441697 -0.34057617 216.83349609 C-0.33972807 214.45648713 -0.34020861 212.07947738 -0.34190369 209.70246887 C-0.34275791 203.30490809 -0.32522574 196.90751902 -0.30418181 190.50999784 C-0.28723462 184.48479412 -0.28430318 178.45959601 -0.2812262 172.43437345 C-0.27469011 160.51481074 -0.25480693 148.59531025 -0.22631836 136.67578125 C-0.19870362 125.1097036 -0.17754101 113.54364304 -0.16479492 101.97753906 C-0.16399093 101.25514479 -0.16318694 100.53275051 -0.16235858 99.7884655 C-0.15541832 93.50286518 -0.14896074 87.21726439 -0.14255047 80.93166351 C-0.1144146 53.9543837 -0.05462624 26.97726931 0 0 Z " fill="#FFFFFE" transform="translate(1835,205)"/>
<path d="M0 0 C4.14652284 1.86453276 6.49523835 4.65040993 9.3125 8.125 C10.29247579 9.30900194 11.27294356 10.49259685 12.25390625 11.67578125 C12.96184326 12.53550537 12.96184326 12.53550537 13.68408203 13.41259766 C15.87331036 16.05348125 18.13822892 18.6247948 20.41796875 21.1875 C21.46974944 22.39250306 22.49388759 23.62222059 23.48828125 24.875 C34.22968389 38.09518786 51.17038449 49.98387591 68 53 C79.18502936 54.12515043 89.55195978 53.39557131 100 49 C101.01449219 48.57589844 102.02898438 48.15179688 103.07421875 47.71484375 C118.86920563 40.45440804 128.83595012 29.09501914 135 13 C135.80907129 10.34318483 136.56214255 7.6926033 137.2265625 4.99609375 C138 3 138 3 141 1 C143.14000432 3.14000432 142.31051067 7.16619785 142.31689453 10.04248047 C141.45839261 56.51817098 118.39252192 99.82947689 86 132 C46.75655061 169.08211754 -5.70526 186.50574587 -59.15185547 185.10498047 C-85.32590832 184.14022453 -112.57891144 177.90252041 -136 166 C-132.96199252 162.96199252 -129.16807378 163.0480354 -125.06640625 162.44921875 C-123.19986235 162.15955313 -121.33332617 161.86983782 -119.46679688 161.58007812 C-116.54332851 161.13640879 -113.61939662 160.69602117 -110.69506836 160.25805664 C-100.56068308 158.72957196 -90.53950487 157.08051597 -80.6171875 154.48046875 C-79.86881119 154.28466721 -79.12043488 154.08886566 -78.34938049 153.88713074 C-52.18217761 146.70593574 -29.09778841 130.34922319 -15.12988281 106.98535156 C-6.53048022 91.8750789 -1.03992697 73.83481511 -0.79467773 56.42211914 C-0.77473251 55.16134048 -0.75478729 53.90056183 -0.73423767 52.60157776 C-0.71726002 51.24610513 -0.70038097 49.89063125 -0.68359375 48.53515625 C-0.66299241 47.13267957 -0.64199517 45.73020865 -0.62062073 44.32774353 C-0.56572807 40.65685732 -0.51617577 36.98591816 -0.46777344 33.31494141 C-0.41731707 29.56082511 -0.36175767 25.80678462 -0.30664062 22.05273438 C-0.19946105 14.70188732 -0.09792882 7.35097674 0 0 Z " fill="#F4855A" transform="translate(2676,408)"/>
<path d="M0 0 C1.7298814 -0.0121352 3.45978796 -0.0207109 5.18969727 -0.02783203 C6.15303482 -0.03299835 7.11637238 -0.03816467 8.10890198 -0.04348755 C41.83360179 0.46379533 72.48737125 15.72622961 97 38 C97.87269531 38.78890625 98.74539063 39.5778125 99.64453125 40.390625 C122.77097637 62.38806256 137.82234036 95.21266975 140 127 C140 130.96 140 134.92 140 139 C94.13 139 48.26 139 1 139 C-0.15514419 70.84649299 -0.15514419 70.84649299 -0.06866455 38.86383057 C-0.05794691 34.42810625 -0.05376976 29.99237447 -0.04882812 25.55664062 C-0.03848005 17.03774269 -0.02171311 8.51887657 0 0 Z " fill="#F4875B" transform="translate(1835,24)"/>
<path d="M0 0 C13.0385614 9.11999554 20.75417349 20.92675069 23.76953125 36.56640625 C25.7938813 51.04241889 22.35297269 64.44629166 14.18359375 76.52734375 C5.47688696 87.61785674 -7.22080847 95.6070958 -21.38671875 97.3515625 C-22.18851563 97.40957031 -22.9903125 97.46757812 -23.81640625 97.52734375 C-24.53570313 97.59566406 -25.255 97.66398437 -25.99609375 97.734375 C-39.9275664 98.42329398 -53.58111119 93.23308273 -64.12890625 84.33984375 C-73.61041615 75.26925001 -80.31667276 62.92617746 -81.01953125 49.70703125 C-81.31873124 33.27390082 -77.79604785 20.0248953 -66.19140625 7.84765625 C-48.33387464 -9.5986822 -21.6152391 -13.04846544 0 0 Z " fill="#F68F5C" transform="translate(2779.81640625,345.47265625)"/>
</svg>
