<svg width="187" height="70" viewBox="0 0 187 70" fill="none" xmlns="http://www.w3.org/2000/svg">
<path d="M9.69336 29.2773H14.0391C15.0156 29.2773 15.5039 28.7891 15.5039 27.8125V10.3809C15.5039 9.4043 15.0156 8.91602 14.0391 8.91602H9.69336V29.2773ZM0.953125 0.175781H16.9688C18.9544 0.175781 20.6634 0.891927 22.0957 2.32422C23.528 3.75651 24.2441 5.46549 24.2441 7.45117V30.7422C24.2441 32.7279 23.528 34.4368 22.0957 35.8691C20.6634 37.3014 18.9544 38.0176 16.9688 38.0176H9.69336V70H0.953125V0.175781ZM8.22852 30.7422V7.45117H14.0391C14.8529 7.45117 15.5365 7.74414 16.0898 8.33008C16.6758 8.88346 16.9688 9.56706 16.9688 10.3809V27.8125C16.9688 28.6263 16.6758 29.3099 16.0898 29.8633C15.5365 30.4492 14.8529 30.7422 14.0391 30.7422H8.22852ZM16.9688 1.64062H2.41797V68.5352H8.22852V36.5527H16.9688C18.5638 36.5527 19.931 35.9831 21.0703 34.8438C22.2096 33.7044 22.7793 32.3372 22.7793 30.7422V7.45117C22.7793 5.85612 22.2096 4.48893 21.0703 3.34961C19.931 2.21029 18.5638 1.64062 16.9688 1.64062ZM51.4902 0.175781V62.7246C51.4902 64.7428 50.7741 66.4518 49.3418 67.8516C47.9095 69.2839 46.2005 70 44.2148 70H35.4746C33.4564 70 31.7474 69.2839 30.3477 67.8516C28.9154 66.4518 28.1992 64.7428 28.1992 62.7246V0.175781H36.9395V59.8438C36.9395 60.7878 37.4115 61.2598 38.3555 61.2598H41.2852C42.2617 61.2598 42.75 60.7878 42.75 59.8438V0.175781H51.4902ZM50.0254 1.64062H44.2148V59.8438C44.2148 60.625 43.9219 61.3086 43.3359 61.8945C42.7826 62.4479 42.099 62.7246 41.2852 62.7246H38.3555C37.5742 62.7246 36.8906 62.4479 36.3047 61.8945C35.7513 61.3086 35.4746 60.625 35.4746 59.8438V1.64062H29.6641V62.7246C29.6641 64.3197 30.2337 65.6868 31.373 66.8262C32.5124 67.9655 33.8796 68.5352 35.4746 68.5352H44.2148C45.8099 68.5352 47.1771 67.9655 48.3164 66.8262C49.4557 65.6868 50.0254 64.3197 50.0254 62.7246V1.64062ZM71.4609 0.175781H80.1523V70H71.6562L64.1855 37.9688V70H55.4453V0.175781H64.2832L71.4609 30.7422V0.175781ZM72.877 1.64062V43.3398L70.0449 31.084L63.1602 1.64062H56.9102V68.5352H62.7207V25.3711L65.6016 37.627L72.8281 68.5352H78.7363V1.64062H72.877ZM84.0586 0.175781H105.885V8.91602H92.7988V29.2773H100.074V38.0176H92.7988V61.2598H105.885V70H84.0586V0.175781ZM85.5234 1.64062V68.5352H104.42V62.7246H91.334V36.5527H98.6094V30.7422H91.334V7.45117H104.42V1.64062H85.5234ZM109.84 0.175781H131.666V8.91602H118.58V29.2773H125.855V38.0176H118.58V61.2598H131.666V70H109.84V0.175781ZM111.305 1.64062V68.5352H130.201V62.7246H117.115V36.5527H124.391V30.7422H117.115V7.45117H130.201V1.64062H111.305ZM135.621 0.175781H158.912V8.91602H151.637V70H142.896V8.91602H135.621V0.175781ZM137.086 1.64062V7.45117H144.361V68.5352H150.172V7.45117H157.447V1.64062H137.086ZM177.418 0.175781H186.158V70H177.418V38.0176H171.607V70H162.867V0.175781H171.607V29.2773H177.418V0.175781ZM178.883 30.7422H170.143V1.64062H164.332V68.5352H170.143V36.5527H178.883V68.5352H184.693V1.64062H178.883V30.7422Z" fill="white"/>
</svg>
