<svg width="135" height="70" viewBox="0 0 135 70" fill="none" xmlns="http://www.w3.org/2000/svg">
<path d="M9.69336 29.2773H11.1094C12.3464 29.2773 13.388 28.8542 14.2344 28.0078C15.0807 27.1615 15.5039 26.1361 15.5039 24.9316V10.3809C15.5039 9.4043 15.0156 8.91602 14.0391 8.91602H9.69336V29.2773ZM0.953125 0.175781H16.9688C18.9544 0.175781 20.6634 0.891927 22.0957 2.32422C23.528 3.75651 24.2441 5.46549 24.2441 7.45117V24.9316C24.2441 28.252 23.1211 31.1491 20.875 33.623C23.1211 36.1296 24.2441 39.043 24.2441 42.3633V70H15.5039V42.3633C15.5039 41.1589 15.0807 40.1335 14.2344 39.2871C13.3555 38.4408 12.3138 38.0176 11.1094 38.0176H9.69336V70H0.953125V0.175781ZM8.22852 30.7422V7.45117H14.0391C14.8529 7.45117 15.5365 7.74414 16.0898 8.33008C16.6758 8.88346 16.9688 9.56706 16.9688 10.3809V24.9316C16.9688 26.5267 16.3991 27.8939 15.2598 29.0332C14.1204 30.1725 12.737 30.7422 11.1094 30.7422H8.22852ZM16.9688 1.64062H2.41797V68.5352H8.22852V36.5527H11.1094C12.737 36.5527 14.1204 37.1224 15.2598 38.2617C16.3991 39.401 16.9688 40.7682 16.9688 42.3633V68.5352H22.7793V42.3633C22.7793 39.401 21.7865 36.8132 19.8008 34.5996L18.9219 33.623L19.8008 32.6953C21.7865 30.4818 22.7793 27.8939 22.7793 24.9316V7.45117C22.7793 5.85612 22.2096 4.48893 21.0703 3.34961C19.931 2.21029 18.5638 1.64062 16.9688 1.64062ZM28.1992 0.175781H50.0254V8.91602H36.9395V29.2773H44.2148V38.0176H36.9395V61.2598H50.0254V70H28.1992V0.175781ZM29.6641 1.64062V68.5352H48.5605V62.7246H35.4746V36.5527H42.75V30.7422H35.4746V7.45117H48.5605V1.64062H29.6641ZM62.7207 61.2598H67.0664C68.043 61.2598 68.5312 60.7878 68.5312 59.8438V10.3809C68.5312 9.4043 68.043 8.91602 67.0664 8.91602H62.7207V61.2598ZM53.9805 0.175781H69.9961C71.9818 0.175781 73.6908 0.891927 75.123 2.32422C76.5553 3.75651 77.2715 5.46549 77.2715 7.45117V62.7246C77.2715 64.7428 76.5553 66.4518 75.123 67.8516C73.6908 69.2839 71.9818 70 69.9961 70H53.9805V0.175781ZM61.2559 62.7246V7.45117H67.0664C67.8802 7.45117 68.5638 7.74414 69.1172 8.33008C69.7031 8.88346 69.9961 9.56706 69.9961 10.3809V59.8438C69.9961 60.625 69.7031 61.3086 69.1172 61.8945C68.5638 62.4479 67.8802 62.7246 67.0664 62.7246H61.2559ZM69.9961 1.64062H55.4453V68.5352H69.9961C71.5911 68.5352 72.9583 67.9655 74.0977 66.8262C75.237 65.6868 75.8066 64.3197 75.8066 62.7246V7.45117C75.8066 5.85612 75.237 4.48893 74.0977 3.34961C72.9583 2.21029 71.5911 1.64062 69.9961 1.64062ZM89.9668 61.2598H94.3125C95.2891 61.2598 95.7773 60.7878 95.7773 59.8438V10.3809C95.7773 9.4043 95.2891 8.91602 94.3125 8.91602H89.9668V61.2598ZM81.2266 0.175781H97.2422C99.2279 0.175781 100.937 0.891927 102.369 2.32422C103.801 3.75651 104.518 5.46549 104.518 7.45117V62.7246C104.518 64.7428 103.801 66.4518 102.369 67.8516C100.937 69.2839 99.2279 70 97.2422 70H81.2266V0.175781ZM88.502 62.7246V7.45117H94.3125C95.1263 7.45117 95.8099 7.74414 96.3633 8.33008C96.9492 8.88346 97.2422 9.56706 97.2422 10.3809V59.8438C97.2422 60.625 96.9492 61.3086 96.3633 61.8945C95.8099 62.4479 95.1263 62.7246 94.3125 62.7246H88.502ZM97.2422 1.64062H82.6914V68.5352H97.2422C98.8372 68.5352 100.204 67.9655 101.344 66.8262C102.483 65.6868 103.053 64.3197 103.053 62.7246V7.45117C103.053 5.85612 102.483 4.48893 101.344 3.34961C100.204 2.21029 98.8372 1.64062 97.2422 1.64062ZM125.367 0.175781H134.254L125.709 45.6836V70H117.018V45.6836L108.473 0.175781H117.359L121.363 21.6113L125.367 0.175781ZM122.779 21.8555L121.363 29.4727L119.947 21.8555L116.139 1.64062H110.23L118.434 45.3906V45.5371V68.5352H124.293V45.5371V45.3906L132.496 1.64062H126.588L122.779 21.8555Z" fill="white"/>
</svg>
